{
  "accessors": [
    {
      "bufferView": 2,
      "componentType": 5126,
      "count": 36840,
      "max": [
        0.8785446882247925,
        1.2551716566085815,
        1.3128365278244019
      ],
      "min": [
        -0.8675323128700256,
        -1.0529528856277466,
        -1.1129980087280273
      ],
      "type": "VEC3"
    },
    {
      "bufferView": 2,
      "byteOffset": 442080,
      "componentType": 5126,
      "count": 36840,
      "max": [
        0.9999510049819946,
        0.9989384412765503,
        0.9999639987945557
      ],
      "min": [
        -0.9999352097511292,
        -0.999970018863678,
        -0.9999563097953796
      ],
      "type": "VEC3"
    },
    {
      "bufferView": 1,
      "componentType": 5126,
      "count": 36840,
      "max": [
        0.9868006706237793,
        0.8523292541503906
      ],
      "min": [
        0.013199353590607643,
        0.2650999128818512
      ],
      "type": "VEC2"
    },
    {
      "bufferView": 0,
      "componentType": 5125,
      "count": 38196,
      "type": "SCALAR"
    },
    {
      "bufferView": 2,
      "byteOffset": 884160,
      "componentType": 5126,
      "count": 10896,
      "max": [
        0.839900016784668,
        1.2572790384292603,
        1.3186755180358887
      ],
      "min": [
        -0.8504095077514648,
        -1.0543698072433472,
        -0.6508212089538574
      ],
      "type": "VEC3"
    },
    {
      "bufferView": 2,
      "byteOffset": 1014912,
      "componentType": 5126,
      "count": 10896,
      "max": [
        0.9982039928436279,
        0.9995250701904297,
        0.9999507665634155
      ],
      "min": [
        -0.9995710253715515,
        -0.999958336353302,
        -0.9985542893409729
      ],
      "type": "VEC3"
    },
    {
      "bufferView": 1,
      "byteOffset": 294720,
      "componentType": 5126,
      "count": 10896,
      "max": [
        0.7688995599746704,
        0.8082000017166138
      ],
      "min": [
        0.23549942672252655,
        0.26518958806991577
      ],
      "type": "VEC2"
    },
    {
      "bufferView": 0,
      "byteOffset": 152784,
      "componentType": 5125,
      "count": 16344,
      "type": "SCALAR"
    },
    {
      "bufferView": 2,
      "byteOffset": 1145664,
      "componentType": 5126,
      "count": 17127,
      "max": [
        0.8788299560546875,
        1.255140781402588,
        1.313347339630127
      ],
      "min": [
        -0.8526780009269714,
        -1.0529528856277466,
        -1.1129980087280273
      ],
      "type": "VEC3"
    },
    {
      "bufferView": 2,
      "byteOffset": 1351188,
      "componentType": 5126,
      "count": 17127,
      "max": [
        0.9999620914459229,
        0.9999768733978271,
        0.9999055862426758
      ],
      "min": [
        -0.9999407529830933,
        -0.99604731798172,
        -0.9993122816085815
      ],
      "type": "VEC3"
    },
    {
      "bufferView": 1,
      "byteOffset": 381888,
      "componentType": 5126,
      "count": 17127,
      "max": [
        0.9868000149726868,
        0.8525000214576721
      ],
      "min": [
        0.013199999928474426,
        0.26510000228881836
      ],
      "type": "VEC2"
    },
    {
      "bufferView": 0,
      "byteOffset": 218160,
      "componentType": 5125,
      "count": 101916,
      "type": "SCALAR"
    },
    {
      "bufferView": 2,
      "byteOffset": 1556712,
      "componentType": 5126,
      "count": 231,
      "max": [
        -0.18221420049667358,
        0.47219711542129517,
        0.8725572228431702
      ],
      "min": [
        -0.44695422053337097,
        0.3680895268917084,
        0.7792868614196777
      ],
      "type": "VEC3"
    },
    {
      "bufferView": 2,
      "byteOffset": 1559484,
      "componentType": 5126,
      "count": 231,
      "max": [
        0.5441866517066956,
        0.8747220039367676,
        0.9970057606697083
      ],
      "min": [
        -0.8837226629257202,
        -0.27690309286117554,
        0.43868857622146606
      ],
      "type": "VEC3"
    },
    {
      "bufferView": 1,
      "byteOffset": 518904,
      "componentType": 5126,
      "count": 231,
      "max": [
        0.47099411487579346,
        0.5631251335144043
      ],
      "min": [
        0.440171480178833,
        0.5516241788864136
      ],
      "type": "VEC2"
    },
    {
      "bufferView": 0,
      "byteOffset": 625824,
      "componentType": 5125,
      "count": 1230,
      "type": "SCALAR"
    },
    {
      "bufferView": 2,
      "byteOffset": 1562256,
      "componentType": 5126,
      "count": 65532,
      "max": [
        0.7981865406036377,
        1.2534819841384888,
        1.288469672203064
      ],
      "min": [
        -0.7758740782737732,
        -1.2069801092147827,
        -0.6519965529441833
      ],
      "type": "VEC3"
    },
    {
      "bufferView": 2,
      "byteOffset": 2348640,
      "componentType": 5126,
      "count": 65532,
      "max": [
        0.9999691843986511,
        0.9998952746391296,
        0.9997518658638
      ],
      "min": [
        -0.9998374581336975,
        -0.9997183084487915,
        -0.9996153712272644
      ],
      "type": "VEC3"
    },
    {
      "bufferView": 1,
      "byteOffset": 520752,
      "componentType": 5126,
      "count": 65532,
      "max": [
        0.76910001039505,
        0.8082000017166138
      ],
      "min": [
        0.23360002040863037,
        0.26510000228881836
      ],
      "type": "VEC2"
    },
    {
      "bufferView": 0,
      "byteOffset": 630744,
      "componentType": 5125,
      "count": 98298,
      "type": "SCALAR"
    },
    {
      "bufferView": 2,
      "byteOffset": 3135024,
      "componentType": 5126,
      "count": 65532,
      "max": [
        0.8427348136901855,
        1.164089322090149,
        1.3169465065002441
      ],
      "min": [
        -0.04580874368548393,
        -0.6061166524887085,
        -0.05147378891706467
      ],
      "type": "VEC3"
    },
    {
      "bufferView": 2,
      "byteOffset": 3921408,
      "componentType": 5126,
      "count": 65532,
      "max": [
        0.9998771548271179,
        0.9998049736022949,
        0.9999315738677979
      ],
      "min": [
        -0.9998325109481812,
        -0.9998815655708313,
        -0.9999319314956665
      ],
      "type": "VEC3"
    },
    {
      "bufferView": 1,
      "byteOffset": 1045008,
      "componentType": 5126,
      "count": 65532,
      "max": [
        0.7030775547027588,
        0.6477000117301941
      ],
      "min": [
        0.4924165606498718,
        0.38609999418258667
      ],
      "type": "VEC2"
    },
    {
      "bufferView": 0,
      "byteOffset": 1023936,
      "componentType": 5125,
      "count": 98298,
      "type": "SCALAR"
    },
    {
      "bufferView": 2,
      "byteOffset": 4707792,
      "componentType": 5126,
      "count": 65532,
      "max": [
        0.8166475296020508,
        1.1128755807876587,
        1.3169465065002441
      ],
      "min": [
        -0.8559674024581909,
        -0.6111239790916443,
        -0.14715395867824554
      ],
      "type": "VEC3"
    },
    {
      "bufferView": 2,
      "byteOffset": 5494176,
      "componentType": 5126,
      "count": 65532,
      "max": [
        0.9999989867210388,
        0.9999645352363586,
        0.9999756813049316
      ],
      "min": [
        -0.9999464154243469,
        -0.9998558759689331,
        -0.9999873638153076
      ],
      "type": "VEC3"
    },
    {
      "bufferView": 1,
      "byteOffset": 1569264,
      "componentType": 5126,
      "count": 65532,
      "max": [
        0.7288371324539185,
        0.6378999948501587
      ],
      "min": [
        0.27116286754608154,
        0.3856000006198883
      ],
      "type": "VEC2"
    },
    {
      "bufferView": 0,
      "byteOffset": 1417128,
      "componentType": 5125,
      "count": 98298,
      "type": "SCALAR"
    },
    {
      "bufferView": 2,
      "byteOffset": 6280560,
      "componentType": 5126,
      "count": 65532,
      "max": [
        0.012835738249123096,
        1.164089322090149,
        1.311849594116211
      ],
      "min": [
        -0.8559674024581909,
        -0.6409990787506104,
        -0.14556942880153656
      ],
      "type": "VEC3"
    },
    {
      "bufferView": 2,
      "byteOffset": 7066944,
      "componentType": 5126,
      "count": 65532,
      "max": [
        0.9993356466293335,
        0.9998977780342102,
        0.9999778866767883
      ],
      "min": [
        -0.9992387294769287,
        -0.9999988675117493,
        -0.9999884963035583
      ],
      "type": "VEC3"
    },
    {
      "bufferView": 1,
      "byteOffset": 2093520,
      "componentType": 5126,
      "count": 65532,
      "max": [
        0.5000006556510925,
        0.6477000117301941
      ],
      "min": [
        0.2894405722618103,
        0.3856000006198883
      ],
      "type": "VEC2"
    },
    {
      "bufferView": 0,
      "byteOffset": 1810320,
      "componentType": 5125,
      "count": 98298,
      "type": "SCALAR"
    },
    {
      "bufferView": 2,
      "byteOffset": 7853328,
      "componentType": 5126,
      "count": 56904,
      "max": [
        0.4406241476535797,
        1.1584128141403198,
        1.3133448362350464
      ],
      "min": [
        -0.8115643262863159,
        -0.611921489238739,
        -0.12668031454086304
      ],
      "type": "VEC3"
    },
    {
      "bufferView": 2,
      "byteOffset": 8536176,
      "componentType": 5126,
      "count": 56904,
      "max": [
        0.9999598860740662,
        0.9999492168426514,
        0.9999730587005615
      ],
      "min": [
        -0.9998278021812439,
        -0.9999963641166687,
        -0.9999231696128845
      ],
      "type": "VEC3"
    },
    {
      "bufferView": 1,
      "byteOffset": 2617776,
      "componentType": 5126,
      "count": 56904,
      "max": [
        0.559828519821167,
        0.647599995136261
      ],
      "min": [
        0.2900698781013489,
        0.39469999074935913
      ],
      "type": "VEC2"
    },
    {
      "bufferView": 0,
      "byteOffset": 2203512,
      "componentType": 5125,
      "count": 85356,
      "type": "SCALAR"
    },
    {
      "bufferView": 2,
      "byteOffset": 9219024,
      "componentType": 5126,
      "count": 648,
      "max": [
        0.7533918619155884,
        1.2832558155059814,
        1.316023588180542
      ],
      "min": [
        -0.8084200620651245,
        -1.0215039253234863,
        -1.0118223428726196
      ],
      "type": "VEC3"
    },
    {
      "bufferView": 2,
      "byteOffset": 9226800,
      "componentType": 5126,
      "count": 648,
      "max": [
        0.9972440004348755,
        0.9860073924064636,
        0.9860764741897583
      ],
      "min": [
        -0.9966857433319092,
        -0.9947445392608643,
        -0.9759560823440552
      ],
      "type": "VEC3"
    },
    {
      "bufferView": 1,
      "byteOffset": 3073008,
      "componentType": 5126,
      "count": 648,
      "max": [
        0.9309444427490234,
        0.8092038631439209
      ],
      "min": [
        0.09483608603477478,
        0.27693691849708557
      ],
      "type": "VEC2"
    },
    {
      "bufferView": 0,
      "byteOffset": 2544936,
      "componentType": 5125,
      "count": 972,
      "type": "SCALAR"
    },
    {
      "bufferView": 2,
      "byteOffset": 9234576,
      "componentType": 5126,
      "count": 648,
      "max": [
        0.7533918619155884,
        1.2832558155059814,
        1.316023588180542
      ],
      "min": [
        -0.8084200620651245,
        -1.0215039253234863,
        -1.0118223428726196
      ],
      "type": "VEC3"
    },
    {
      "bufferView": 2,
      "byteOffset": 9242352,
      "componentType": 5126,
      "count": 648,
      "max": [
        0.9972440004348755,
        0.9860073924064636,
        0.9860764741897583
      ],
      "min": [
        -0.9966857433319092,
        -0.9947445392608643,
        -0.9759560823440552
      ],
      "type": "VEC3"
    },
    {
      "bufferView": 1,
      "byteOffset": 3078192,
      "componentType": 5126,
      "count": 648,
      "max": [
        0.9309444427490234,
        0.8092038631439209
      ],
      "min": [
        0.09483608603477478,
        0.27693691849708557
      ],
      "type": "VEC2"
    },
    {
      "bufferView": 0,
      "byteOffset": 2548824,
      "componentType": 5125,
      "count": 972,
      "type": "SCALAR"
    }
  ],
  "asset": {
    "extras": {
      "author": "luc1906 (https://sketchfab.com/luc1906)",
      "license": "CC-BY-4.0 (http://creativecommons.org/licenses/by/4.0/)",
      "source": "https://sketchfab.com/3d-models/living-things-7dc9e33d87004ddb86179a430e7e2871",
      "title": "LIVING THINGS"
    },
    "generator": "Sketchfab-12.67.0",
    "version": "2.0"
  },
  "bufferViews": [
    {
      "buffer": 0,
      "byteLength": 2552712,
      "name": "floatBufferViews",
      "target": 34963
    },
    {
      "buffer": 0,
      "byteLength": 3083376,
      "byteOffset": 2552712,
      "byteStride": 8,
      "name": "floatBufferViews",
      "target": 34962
    },
    {
      "buffer": 0,
      "byteLength": 9250128,
      "byteOffset": 5636088,
      "byteStride": 12,
      "name": "floatBufferViews",
      "target": 34962
    }
  ],
  "buffers": [
    {
      "byteLength": 14886216,
      "uri": "scene.bin"
    }
  ],
  "materials": [
    {
      "doubleSided": true,
      "name": "kt_facebuilder_material.001",
      "pbrMetallicRoughness": {
        "metallicFactor": 0.0,
        "roughnessFactor": 0.909091
      }
    },
    {
      "doubleSided": true,
      "name": "kt_facebuilder_material",
      "pbrMetallicRoughness": {
        "baseColorFactor": [
          0.023688,
          0.30953,
          0.33723,
          1.0
        ],
        "metallicFactor": 0.0,
        "roughnessFactor": 0.5
      }
    },
    {
      "doubleSided": true,
      "name": "kt_facebuilder_material.002",
      "pbrMetallicRoughness": {
        "baseColorFactor": [
          0.00452099,
          0.00452099,
          0.00452099,
          1.0
        ],
        "metallicFactor": 0.0,
        "roughnessFactor": 0.809091
      }
    },
    {
      "doubleSided": true,
      "emissiveFactor": [
        1.0,
        1.0,
        1.0
      ],
      "name": "Material.001",
      "pbrMetallicRoughness": {
        "baseColorFactor": [
          0.476306,
          0.473298,
          0.464368,
          1.0
        ]
      }
    },
    {
      "doubleSided": true,
      "name": "kt_facebuilder_material.003",
      "pbrMetallicRoughness": {
        "baseColorFactor": [
          0.418004,
          0.418004,
          0.418004,
          1.0
        ],
        "metallicFactor": 0.0,
        "roughnessFactor": 0.5
      }
    },
    {
      "doubleSided": true,
      "name": "kt_facebuilder_material.004",
      "pbrMetallicRoughness": {
        "baseColorFactor": [
          0.00452099,
          0.00452099,
          0.00452099,
          1.0
        ],
        "metallicFactor": 0.0,
        "roughnessFactor": 0.809091
      }
    }
  ],
  "meshes": [
    {
      "name": "Object_0",
      "primitives": [
        {
          "attributes": {
            "NORMAL": 1,
            "POSITION": 0,
            "TEXCOORD_0": 2
          },
          "indices": 3,
          "material": 0,
          "mode": 4
        }
      ]
    },
    {
      "name": "Object_1",
      "primitives": [
        {
          "attributes": {
            "NORMAL": 5,
            "POSITION": 4,
            "TEXCOORD_0": 6
          },
          "indices": 7,
          "material": 1,
          "mode": 4
        }
      ]
    },
    {
      "name": "Object_2",
      "primitives": [
        {
          "attributes": {
            "NORMAL": 9,
            "POSITION": 8,
            "TEXCOORD_0": 10
          },
          "indices": 11,
          "material": 2,
          "mode": 4
        }
      ]
    },
    {
      "name": "Object_3",
      "primitives": [
        {
          "attributes": {
            "NORMAL": 13,
            "POSITION": 12,
            "TEXCOORD_0": 14
          },
          "indices": 15,
          "material": 3,
          "mode": 4
        }
      ]
    },
    {
      "name": "Object_4",
      "primitives": [
        {
          "attributes": {
            "NORMAL": 17,
            "POSITION": 16,
            "TEXCOORD_0": 18
          },
          "indices": 19,
          "material": 4,
          "mode": 4
        }
      ]
    },
    {
      "name": "Object_5",
      "primitives": [
        {
          "attributes": {
            "NORMAL": 21,
            "POSITION": 20,
            "TEXCOORD_0": 22
          },
          "indices": 23,
          "material": 4,
          "mode": 4
        }
      ]
    },
    {
      "name": "Object_6",
      "primitives": [
        {
          "attributes": {
            "NORMAL": 25,
            "POSITION": 24,
            "TEXCOORD_0": 26
          },
          "indices": 27,
          "material": 4,
          "mode": 4
        }
      ]
    },
    {
      "name": "Object_7",
      "primitives": [
        {
          "attributes": {
            "NORMAL": 29,
            "POSITION": 28,
            "TEXCOORD_0": 30
          },
          "indices": 31,
          "material": 4,
          "mode": 4
        }
      ]
    },
    {
      "name": "Object_8",
      "primitives": [
        {
          "attributes": {
            "NORMAL": 33,
            "POSITION": 32,
            "TEXCOORD_0": 34
          },
          "indices": 35,
          "material": 4,
          "mode": 4
        }
      ]
    },
    {
      "name": "Object_9",
      "primitives": [
        {
          "attributes": {
            "NORMAL": 37,
            "POSITION": 36,
            "TEXCOORD_0": 38
          },
          "indices": 39,
          "material": 5,
          "mode": 4
        }
      ]
    },
    {
      "name": "Object_10",
      "primitives": [
        {
          "attributes": {
            "NORMAL": 41,
            "POSITION": 40,
            "TEXCOORD_0": 42
          },
          "indices": 43,
          "material": 5,
          "mode": 4
        }
      ]
    }
  ],
  "nodes": [
    {
      "children": [
        1
      ],
      "matrix": [
        1.0,
        0.0,
        0.0,
        0.0,
        0.0,
        2.220446049250313e-16,
        -1.0,
        0.0,
        0.0,
        1.0,
        2.220446049250313e-16,
        0.0,
        0.0,
        0.0,
        0.0,
        1.0
      ],
      "name": "Sketchfab_model"
    },
    {
      "children": [
        2
      ],
      "name": "root"
    },
    {
      "children": [
        3,
        7,
        10,
        16,
        18
      ],
      "matrix": [
        1.0,
        0.0,
        0.0,
        0.0,
        0.0,
        2.220446049250313e-16,
        1.0,
        0.0,
        0.0,
        -1.0,
        2.220446049250313e-16,
        0.0,
        0.0,
        0.0,
        0.0,
        1.0
      ],
      "name": "GLTF_SceneRootNode"
    },
    {
      "children": [
        4,
        5
      ],
      "matrix": [
        1.0436525344848633,
        0.0,
        0.0,
        0.0,
        0.0,
        1.0436525344848633,
        0.0,
        0.0,
        0.0,
        0.0,
        1.0436525344848633,
        0.0,
        0.0,
        0.0,
        0.0,
        1.0
      ],
      "name": "FaceBuilderHead.001_4"
    },
    {
      "mesh": 0,
      "name": "Object_4"
    },
    {
      "children": [
        6
      ],
      "matrix": [
        1.0351197719573975,
        0.0,
        0.0,
        0.0,
        0.0,
        1.0351197719573975,
        0.0,
        0.0,
        0.0,
        0.0,
        1.0351197719573975,
        0.0,
        0.0,
        0.0,
        0.0,
        1.0
      ],
      "name": "FaceBuilderHead_3"
    },
    {
      "mesh": 1,
      "name": "Object_6"
    },
    {
      "children": [
        8,
        9
      ],
      "name": "FaceBuilderHead.002_5"
    },
    {
      "mesh": 2,
      "name": "Object_8"
    },
    {
      "mesh": 3,
      "name": "Object_9"
    },
    {
      "children": [
        11,
        12,
        13,
        14,
        15
      ],
      "matrix": [
        1.049320101737976,
        0.0,
        0.0,
        0.0,
        0.0,
        1.049320101737976,
        0.0,
        0.0,
        0.0,
        0.0,
        1.049320101737976,
        0.0,
        0.0,
        0.0,
        0.0,
        1.0
      ],
      "name": "FaceBuilderHead.003_6"
    },
    {
      "mesh": 4,
      "name": "Object_11"
    },
    {
      "mesh": 5,
      "name": "Object_12"
    },
    {
      "mesh": 6,
      "name": "Object_13"
    },
    {
      "mesh": 7,
      "name": "Object_14"
    },
    {
      "mesh": 8,
      "name": "Object_15"
    },
    {
      "children": [
        17
      ],
      "matrix": [
        1.0723141431808472,
        0.0,
        0.0,
        0.0,
        0.0,
        1.0723141431808472,
        0.0,
        0.0,
        0.0,
        0.0,
        1.0723141431808472,
        0.0,
        0.0,
        0.0,
        0.0,
        1.0
      ],
      "name": "FaceBuilderHead.004_7"
    },
    {
      "mesh": 9,
      "name": "Object_17"
    },
    {
      "children": [
        19
      ],
      "matrix": [
        1.383305311203003,
        0.0,
        0.0,
        0.0,
        0.0,
        1.383305311203003,
        0.0,
        0.0,
        0.0,
        0.0,
        1.383305311203003,
        0.0,
        0.0,
        0.0,
        0.0,
        1.0
      ],
      "name": "FaceBuilderHead.005_8"
    },
    {
      "mesh": 10,
      "name": "Object_19"
    }
  ],
  "scene": 0,
  "scenes": [
    {
      "name": "Sketchfab_Scene",
      "nodes": [
        0
      ]
    }
  ]
}
